<svg xmlns="http://www.w3.org/2000/svg" viewBox="0 0 512 512">
  <defs>
    <linearGradient id="bg" x1="0" y1="0" x2="1" y2="1">
      <stop offset="0" stop-color="#16263a"/>
      <stop offset="1" stop-color="#070b10"/>
    </linearGradient>
    <radialGradient id="glow" cx="0.5" cy="0.5" r="0.5">
      <stop offset="0" stop-color="#7fd0ff" stop-opacity="0.55"/>
      <stop offset="1" stop-color="#7fd0ff" stop-opacity="0"/>
    </radialGradient>
    <linearGradient id="star" x1="0" y1="0" x2="1" y2="1">
      <stop offset="0" stop-color="#e8f6ff"/>
      <stop offset="0.55" stop-color="#7fd0ff"/>
      <stop offset="1" stop-color="#2a7fb0"/>
    </linearGradient>
  </defs>
  <rect x="16" y="16" width="480" height="480" rx="104" fill="url(#bg)"/>
  <rect x="16" y="16" width="480" height="480" rx="104" fill="none" stroke="#2c4a66" stroke-width="6"/>
  <circle cx="256" cy="256" r="190" fill="url(#glow)"/>
  <ellipse cx="256" cy="256" rx="178" ry="58" fill="none" stroke="#4fb3e8" stroke-opacity="0.45" stroke-width="7" transform="rotate(-24 256 256)"/>
  <path d="M256 70 C 270 190, 322 242, 442 256 C 322 270, 270 322, 256 442 C 242 322, 190 270, 70 256 C 190 242, 242 190, 256 70 Z" fill="url(#star)"/>
  <circle cx="256" cy="256" r="22" fill="#ffffff"/>
</svg>
